<svg width="25" height="21" viewBox="0 0 25 21" fill="none" xmlns="http://www.w3.org/2000/svg">
<path d="M12.5 3.1499L13.4797 3.19612L14.4471 3.33418L15.3899 3.56236L16.2965 3.87778L17.1553 4.27648L17.9555 4.75344L18.6872 5.30267L19.341 5.91725L19.9088 6.58947L20.3835 7.31086L20.759 8.07235L21.0306 8.86437L21.195 9.67696L21.25 10.4999L21.195 11.3228L21.0306 12.1354L20.759 12.9275L20.3835 13.6889L19.9088 14.4103L19.341 15.0826L18.6872 15.6971L17.9555 16.2464L17.1553 16.7233L16.2965 17.122L15.3899 17.4374L14.4471 17.6656L13.4797 17.8037L12.5 17.8499L11.5203 17.8037L10.5529 17.6656L9.61006 17.4374L8.70352 17.122L7.84472 16.7233L7.04446 16.2464L6.31282 15.6971L5.65897 15.0826L5.09116 14.4103L4.61652 13.6889L4.24102 12.9275L3.96938 12.1354L3.80502 11.3228L3.75 10.4999L3.80502 9.67696L3.96938 8.86437L4.24102 8.07235L4.61652 7.31086L5.09116 6.58947L5.65897 5.91725L6.31282 5.30267L7.04446 4.75344L7.84472 4.27648L8.70352 3.87778L9.61006 3.56236L10.5529 3.33418L11.5203 3.19612L12.5 3.1499Z" fill="#C2CCDE" fill-opacity="0.25"/>
<path d="M12.5 3.1499L12.5471 2.15101C12.5157 2.14953 12.4843 2.14953 12.4529 2.15101L12.5 3.1499ZM13.4797 3.19612L13.621 2.20615C13.5897 2.20169 13.5583 2.19871 13.5268 2.19723L13.4797 3.19612ZM14.4471 3.33418L14.6823 2.36224C14.6513 2.35474 14.6199 2.34872 14.5883 2.34421L14.4471 3.33418ZM15.3899 3.56236L15.7186 2.6179C15.6879 2.60722 15.6567 2.59805 15.6252 2.59042L15.3899 3.56236ZM16.2965 3.87778L16.7176 2.97076C16.6874 2.95675 16.6565 2.94425 16.6251 2.93332L16.2965 3.87778ZM17.1553 4.27648L17.6673 3.41748C17.6378 3.39992 17.6075 3.3839 17.5764 3.36946L17.1553 4.27648ZM17.9555 4.75344L18.5559 3.9537C18.5275 3.93239 18.498 3.91261 18.4675 3.89444L17.9555 4.75344ZM18.6872 5.30267L19.3721 4.57403C19.3452 4.54878 19.317 4.52505 19.2875 4.50292L18.6872 5.30267ZM19.341 5.91725L20.105 5.27196C20.0802 5.24269 20.0538 5.21486 20.0259 5.18861L19.341 5.91725ZM19.9088 6.58947L20.7442 6.03982C20.7223 6.00654 20.6985 5.97461 20.6728 5.94418L19.9088 6.58947ZM20.3835 7.31086L21.2804 6.86859C21.2621 6.83156 21.2416 6.7957 21.2189 6.76121L20.3835 7.31086ZM20.759 8.07235L21.7049 7.74793C21.6911 7.70764 21.6747 7.66828 21.6559 7.63009L20.759 8.07235ZM21.0306 8.86437L22.0108 8.66612C22.0021 8.62336 21.9907 8.58122 21.9765 8.53995L21.0306 8.86437ZM21.195 9.67696L22.1928 9.61025C22.1898 9.56606 22.1839 9.52212 22.1751 9.47871L21.195 9.67696ZM21.25 10.4999L22.2478 10.5666C22.2507 10.5222 22.2507 10.4776 22.2478 10.4332L21.25 10.4999ZM21.195 11.3228L22.1751 11.5211C22.1839 11.4777 22.1898 11.4337 22.1928 11.3895L21.195 11.3228ZM21.0306 12.1354L21.9765 12.4599C21.9907 12.4186 22.0021 12.3764 22.0108 12.3337L21.0306 12.1354ZM20.759 12.9275L21.6559 13.3697C21.6747 13.3315 21.6911 13.2922 21.7049 13.2519L20.759 12.9275ZM20.3835 13.6889L21.2189 14.2386C21.2416 14.2041 21.2621 14.1682 21.2804 14.1312L20.3835 13.6889ZM19.9088 14.4103L20.6728 15.0556C20.6985 15.0252 20.7223 14.9933 20.7442 14.96L19.9088 14.4103ZM19.341 15.0826L20.0259 15.8112C20.0538 15.7849 20.0802 15.7571 20.105 15.7278L19.341 15.0826ZM18.6872 15.6971L19.2875 16.4969C19.317 16.4748 19.3452 16.451 19.3721 16.4258L18.6872 15.6971ZM17.9555 16.2464L18.4675 17.1054C18.498 17.0872 18.5275 17.0674 18.5559 17.0461L17.9555 16.2464ZM17.1553 16.7233L17.5764 17.6303C17.6075 17.6159 17.6378 17.5999 17.6673 17.5823L17.1553 16.7233ZM16.2965 17.122L16.6251 18.0665C16.6565 18.0556 16.6874 18.0431 16.7176 18.029L16.2965 17.122ZM15.3899 17.4374L15.6252 18.4094C15.6567 18.4018 15.6879 18.3926 15.7186 18.3819L15.3899 17.4374ZM14.4471 17.6656L14.5883 18.6556C14.6199 18.6511 14.6513 18.6451 14.6823 18.6376L14.4471 17.6656ZM13.4797 17.8037L13.5268 18.8026C13.5583 18.8011 13.5897 18.7981 13.621 18.7937L13.4797 17.8037ZM12.5 17.8499L12.4529 18.8488C12.4843 18.8503 12.5157 18.8503 12.5471 18.8488L12.5 17.8499ZM11.5203 17.8037L11.379 18.7937C11.4103 18.7981 11.4417 18.8011 11.4732 18.8026L11.5203 17.8037ZM10.5529 17.6656L10.3177 18.6376C10.3487 18.6451 10.3801 18.6511 10.4117 18.6556L10.5529 17.6656ZM9.61006 17.4374L9.28144 18.3819C9.31211 18.3926 9.34329 18.4018 9.37485 18.4094L9.61006 17.4374ZM8.70352 17.122L8.28243 18.029C8.31261 18.0431 8.34347 18.0556 8.3749 18.0665L8.70352 17.122ZM7.84472 16.7233L7.33275 17.5823C7.3622 17.5999 7.39253 17.6159 7.42363 17.6303L7.84472 16.7233ZM7.04446 16.2464L6.44412 17.0461C6.4725 17.0674 6.502 17.0872 6.53249 17.1054L7.04446 16.2464ZM6.31282 15.6971L5.62792 16.4258C5.65477 16.451 5.683 16.4748 5.71247 16.4969L6.31282 15.6971ZM5.65897 15.0826L4.89504 15.7278C4.91977 15.7571 4.94616 15.7849 4.97408 15.8112L5.65897 15.0826ZM5.09116 14.4103L4.25577 14.96C4.27766 14.9933 4.30152 15.0252 4.32722 15.0556L5.09116 14.4103ZM4.61652 13.6889L3.71964 14.1312C3.7379 14.1682 3.75843 14.2041 3.78113 14.2386L4.61652 13.6889ZM4.24102 12.9275L3.29511 13.2519C3.30892 13.2922 3.3253 13.3315 3.34414 13.3697L4.24102 12.9275ZM3.96938 12.1354L2.98923 12.3337C2.99788 12.3764 3.00932 12.4186 3.02347 12.4599L3.96938 12.1354ZM3.80502 11.3228L2.80725 11.3895C2.8102 11.4337 2.81609 11.4777 2.82487 11.5211L3.80502 11.3228ZM3.75 10.4999L2.75223 10.4332C2.74926 10.4776 2.74926 10.5222 2.75223 10.5666L3.75 10.4999ZM3.80502 9.67696L2.82487 9.47871C2.81609 9.52212 2.8102 9.56606 2.80725 9.61026L3.80502 9.67696ZM3.96938 8.86437L3.02347 8.53995C3.00932 8.58122 2.99788 8.62336 2.98923 8.66612L3.96938 8.86437ZM4.24102 8.07235L3.34414 7.63009C3.3253 7.66828 3.30892 7.70764 3.29511 7.74793L4.24102 8.07235ZM4.61652 7.31086L3.78113 6.76121C3.75843 6.7957 3.7379 6.83156 3.71964 6.86859L4.61652 7.31086ZM5.09116 6.58947L4.32723 5.94418C4.30152 5.97461 4.27766 6.00654 4.25577 6.03982L5.09116 6.58947ZM5.65897 5.91725L4.97408 5.18861C4.94616 5.21486 4.91977 5.24269 4.89504 5.27196L5.65897 5.91725ZM6.31282 5.30267L5.71247 4.50292C5.683 4.52505 5.65477 4.54878 5.62792 4.57403L6.31282 5.30267ZM7.04446 4.75344L6.53249 3.89444C6.502 3.91261 6.47251 3.93239 6.44412 3.9537L7.04446 4.75344ZM7.84472 4.27648L7.42363 3.36946C7.39253 3.3839 7.3622 3.39992 7.33274 3.41748L7.84472 4.27648ZM8.70352 3.87778L8.3749 2.93332C8.34347 2.94425 8.31261 2.95675 8.28243 2.97076L8.70352 3.87778ZM9.61006 3.56236L9.37485 2.59042C9.34329 2.59805 9.31211 2.60722 9.28144 2.6179L9.61006 3.56236ZM10.5529 3.33418L10.4117 2.34421C10.3801 2.34872 10.3487 2.35474 10.3177 2.36224L10.5529 3.33418ZM11.5203 3.19612L11.4732 2.19723C11.4417 2.19871 11.4103 2.20169 11.379 2.20615L11.5203 3.19612ZM12.4529 4.14879L13.4326 4.19501L13.5268 2.19723L12.5471 2.15101L12.4529 4.14879ZM13.3384 4.18609L14.3058 4.32415L14.5883 2.34421L13.621 2.20615L13.3384 4.18609ZM14.2118 4.30613L15.1547 4.5343L15.6252 2.59042L14.6823 2.36224L14.2118 4.30613ZM15.0613 4.50682L15.9679 4.82224L16.6251 2.93332L15.7186 2.6179L15.0613 4.50682ZM15.8754 4.7848L16.7342 5.1835L17.5764 3.36946L16.7176 2.97076L15.8754 4.7848ZM16.6433 5.13548L17.4436 5.61244L18.4675 3.89444L17.6673 3.41748L16.6433 5.13548ZM17.3552 5.55318L18.0868 6.10241L19.2875 4.50292L18.5559 3.9537L17.3552 5.55318ZM18.0023 6.03131L18.6561 6.64589L20.0259 5.18861L19.3721 4.57403L18.0023 6.03131ZM18.5771 6.56254L19.1449 7.23476L20.6728 5.94418L20.105 5.27196L18.5771 6.56254ZM19.0734 7.13912L19.5481 7.86051L21.2189 6.76121L20.7442 6.03982L19.0734 7.13912ZM19.4866 7.75312L19.8621 8.51462L21.6559 7.63009L21.2804 6.86859L19.4866 7.75312ZM19.8131 8.39677L20.0847 9.18879L21.9765 8.53995L21.7049 7.74793L19.8131 8.39677ZM20.0505 9.06263L20.2148 9.87522L22.1751 9.47871L22.0108 8.66612L20.0505 9.06263ZM20.1972 9.74367L20.2522 10.5666L22.2478 10.4332L22.1928 9.61025L20.1972 9.74367ZM20.2522 10.4332L20.1972 11.2561L22.1928 11.3895L22.2478 10.5666L20.2522 10.4332ZM20.2148 11.1246L20.0505 11.9372L22.0108 12.3337L22.1751 11.5211L20.2148 11.1246ZM20.0847 11.811L19.8131 12.603L21.7049 13.2519L21.9765 12.4599L20.0847 11.811ZM19.8621 12.4852L19.4866 13.2467L21.2804 14.1312L21.6559 13.3697L19.8621 12.4852ZM19.5481 13.1393L19.0734 13.8607L20.7442 14.96L21.2189 14.2386L19.5481 13.1393ZM19.1449 13.765L18.5771 14.4373L20.105 15.7278L20.6728 15.0556L19.1449 13.765ZM18.6561 14.3539L18.0023 14.9685L19.3721 16.4258L20.0259 15.8112L18.6561 14.3539ZM18.0868 14.8974L17.3552 15.4466L18.5559 17.0461L19.2875 16.4969L18.0868 14.8974ZM17.4436 15.3874L16.6433 15.8643L17.6673 17.5823L18.4675 17.1054L17.4436 15.3874ZM16.7342 15.8163L15.8754 16.215L16.7176 18.029L17.5764 17.6303L16.7342 15.8163ZM15.9679 16.1776L15.0613 16.493L15.7186 18.3819L16.6251 18.0665L15.9679 16.1776ZM15.1547 16.4655L14.2118 16.6937L14.6823 18.6376L15.6252 18.4094L15.1547 16.4655ZM14.3058 16.6757L13.3384 16.8137L13.621 18.7937L14.5883 18.6556L14.3058 16.6757ZM13.4326 16.8048L12.4529 16.851L12.5471 18.8488L13.5268 18.8026L13.4326 16.8048ZM12.5471 16.851L11.5674 16.8048L11.4732 18.8026L12.4529 18.8488L12.5471 16.851ZM11.6616 16.8137L10.6942 16.6757L10.4117 18.6556L11.379 18.7937L11.6616 16.8137ZM10.7882 16.6937L9.84527 16.4655L9.37485 18.4094L10.3177 18.6376L10.7882 16.6937ZM9.93867 16.493L9.03213 16.1776L8.3749 18.0665L9.28144 18.3819L9.93867 16.493ZM9.1246 16.215L8.26581 15.8163L7.42363 17.6303L8.28243 18.029L9.1246 16.215ZM8.35669 15.8643L7.55644 15.3874L6.53249 17.1054L7.33275 17.5823L8.35669 15.8643ZM7.64481 15.4466L6.91316 14.8974L5.71247 16.4969L6.44412 17.0461L7.64481 15.4466ZM6.99771 14.9685L6.34387 14.3539L4.97408 15.8112L5.62792 16.4258L6.99771 14.9685ZM6.42291 14.4373L5.8551 13.765L4.32722 15.0556L4.89504 15.7278L6.42291 14.4373ZM5.92656 13.8607L5.45192 13.1393L3.78113 14.2386L4.25577 14.96L5.92656 13.8607ZM5.51341 13.2467L5.13791 12.4852L3.34414 13.3697L3.71964 14.1312L5.51341 13.2467ZM5.18693 12.603L4.91529 11.811L3.02347 12.4599L3.29511 13.2519L5.18693 12.603ZM4.94953 11.9372L4.78517 11.1246L2.82487 11.5211L2.98923 12.3337L4.94953 11.9372ZM4.80279 11.2561L4.74777 10.4332L2.75223 10.5666L2.80725 11.3895L4.80279 11.2561ZM4.74777 10.5666L4.80279 9.74367L2.80725 9.61026L2.75223 10.4332L4.74777 10.5666ZM4.78517 9.87522L4.94953 9.06263L2.98923 8.66612L2.82487 9.47871L4.78517 9.87522ZM4.91529 9.18879L5.18693 8.39677L3.29511 7.74793L3.02347 8.53995L4.91529 9.18879ZM5.13791 8.51461L5.51341 7.75312L3.71964 6.86859L3.34414 7.63009L5.13791 8.51461ZM5.45192 7.86051L5.92656 7.13912L4.25577 6.03982L3.78113 6.76121L5.45192 7.86051ZM5.8551 7.23476L6.42291 6.56254L4.89504 5.27196L4.32723 5.94418L5.8551 7.23476ZM6.34387 6.64589L6.99771 6.03131L5.62792 4.57403L4.97408 5.18861L6.34387 6.64589ZM6.91316 6.10241L7.64481 5.55318L6.44412 3.9537L5.71247 4.50292L6.91316 6.10241ZM7.55644 5.61244L8.35669 5.13548L7.33274 3.41748L6.53249 3.89444L7.55644 5.61244ZM8.26581 5.1835L9.1246 4.7848L8.28243 2.97076L7.42363 3.36946L8.26581 5.1835ZM9.03213 4.82224L9.93867 4.50682L9.28144 2.6179L8.3749 2.93332L9.03213 4.82224ZM9.84527 4.5343L10.7882 4.30613L10.3177 2.36224L9.37485 2.59042L9.84527 4.5343ZM10.6942 4.32415L11.6616 4.18609L11.379 2.20615L10.4117 2.34421L10.6942 4.32415ZM11.5674 4.19501L12.5471 4.14879L12.4529 2.15101L11.4732 2.19723L11.5674 4.19501Z" fill="#511F52"/>
<path d="M7.88424 10.5473L10.1985 12.5097C10.6197 12.8669 11.3026 12.8669 11.7239 12.5097L17.115 7.93822" stroke="#511F52" stroke-width="2" stroke-linecap="round" stroke-linejoin="round"/>
</svg>
