<svg width="62" height="56" viewBox="0 0 62 56" fill="none" xmlns="http://www.w3.org/2000/svg">
<path fill-rule="evenodd" clip-rule="evenodd" d="M47.4222 12.74C47.2355 11.2865 46.5103 9.93271 45.3644 8.89836C44.2185 7.864 42.7192 7.20982 41.1099 7.042L38.0099 9.842C40.791 11.0122 43.0272 13.0295 44.3261 15.54L47.4222 12.74ZM18.3675 27.58L33.3637 14.042C34.973 14.2107 36.4718 14.8657 37.617 15.9007C38.7622 16.9357 39.4865 18.2899 39.6722 19.7435L24.6799 33.285C23.8228 34.0575 22.7201 34.569 21.5256 34.748L15.7906 35.6125L16.7478 30.4325C16.946 29.3536 17.5122 28.3541 18.3675 27.58ZM37.665 2.73L29.915 9.73L14.26 23.87C12.5466 25.4173 11.4113 27.4094 11.0128 29.568L9.61 37.17C9.50912 37.7194 9.55484 38.2826 9.74336 38.8128C9.93188 39.3431 10.2578 39.825 10.6939 40.2186C11.1301 40.6122 11.664 40.9062 12.2512 41.076C12.8384 41.2458 13.462 41.2866 14.0701 41.195L22.4789 39.935C24.8706 39.5747 27.0777 38.548 28.7913 36.9985L44.4463 22.8585L52.1963 15.8585C52.8937 15.2285 53.2812 14.378 53.2812 13.489C53.2818 11.9476 52.9461 10.4212 52.2933 8.99694C51.6406 7.57272 50.6836 6.2786 49.4771 5.18849C48.2705 4.09837 46.838 3.23363 45.2614 2.64365C43.6848 2.05366 41.9949 1.75 40.2884 1.75C39.3041 1.75 38.3586 2.1 37.6611 2.73M10.6562 45.5C9.88546 45.5 9.14625 45.7766 8.60122 46.2688C8.05619 46.7611 7.75 47.4288 7.75 48.125C7.75 48.8212 8.05619 49.4889 8.60122 49.9812C9.14625 50.4734 9.88546 50.75 10.6562 50.75H51.3438C52.1145 50.75 52.8537 50.4734 53.3988 49.9812C53.9438 49.4889 54.25 48.8212 54.25 48.125C54.25 47.4288 53.9438 46.7611 53.3988 46.2688C52.8537 45.7766 52.1145 45.5 51.3438 45.5H10.6562Z" fill="#4D5053"/>
</svg>
