<svg width="28" height="22" viewBox="0 0 28 22" fill="none" xmlns="http://www.w3.org/2000/svg">
<path d="M27.5709 19.7917L21.2234 14.8044C22.7516 13.206 23.5766 11.2603 23.5738 9.26112C23.5738 4.15457 18.2861 0 11.7869 0C5.28764 0 0 4.15457 0 9.26112C0 14.3677 5.28764 18.5222 11.7869 18.5222C14.3313 18.5245 16.8076 17.8763 18.842 16.6755L25.1895 21.6628C25.5108 21.8885 25.9298 22.009 26.3606 21.9995C26.7914 21.99 27.2013 21.8513 27.506 21.6119C27.8108 21.3724 27.9873 21.0504 27.9993 20.7119C28.0114 20.3734 27.8581 20.0442 27.5709 19.7917ZM3.36768 9.26112C3.36768 7.95278 3.86146 6.67382 4.78657 5.58598C5.71168 4.49813 7.02658 3.65026 8.56499 3.14958C10.1034 2.6489 11.7962 2.5179 13.4294 2.77314C15.0625 3.02839 16.5627 3.65841 17.7402 4.58355C18.9176 5.50868 19.7194 6.68738 20.0443 7.97058C20.3692 9.25378 20.2024 10.5839 19.5652 11.7926C18.928 13.0014 17.8489 14.0345 16.4643 14.7614C15.0798 15.4882 13.452 15.8762 11.7869 15.8762C9.55479 15.8741 7.41489 15.1765 5.83656 13.9364C4.25824 12.6963 3.37036 11.0149 3.36768 9.26112Z" fill="#CCCCCC"/>
</svg>
