<svg width="16" height="17" viewBox="0 0 16 17" fill="none" xmlns="http://www.w3.org/2000/svg">
<path d="M15.4192 8.53384H5.49212M1.98811 8.53384H0.554688M1.98811 8.53384C1.98811 8.02283 2.17265 7.53276 2.50114 7.17142C2.82963 6.81008 3.27516 6.60708 3.73971 6.60708C4.20426 6.60708 4.64979 6.81008 4.97828 7.17142C5.30677 7.53276 5.49131 8.02283 5.49131 8.53384C5.49131 9.04485 5.30677 9.53493 4.97828 9.89627C4.64979 10.2576 4.20426 10.4606 3.73971 10.4606C3.27516 10.4606 2.82963 10.2576 2.50114 9.89627C2.17265 9.53493 1.98811 9.04485 1.98811 8.53384ZM15.4192 14.3733H10.8008M10.8008 14.3733C10.8008 14.8845 10.6158 15.3751 10.2872 15.7365C9.95864 16.0979 9.51301 16.301 9.04835 16.301C8.5838 16.301 8.13827 16.0971 7.80978 15.7358C7.48129 15.3744 7.29675 14.8844 7.29675 14.3733M10.8008 14.3733C10.8008 13.8622 10.6158 13.3725 10.2872 13.011C9.95864 12.6496 9.51301 12.4466 9.04835 12.4466C8.5838 12.4466 8.13827 12.6496 7.80978 13.0109C7.48129 13.3723 7.29675 13.8623 7.29675 14.3733M7.29675 14.3733H0.554688M15.4192 2.69434H12.9244M9.42036 2.69434H0.554688M9.42036 2.69434C9.42036 2.18333 9.60491 1.69325 9.9334 1.33191C10.2619 0.970576 10.7074 0.767578 11.172 0.767578C11.402 0.767578 11.6298 0.817415 11.8423 0.914244C12.0548 1.01107 12.2479 1.153 12.4105 1.33191C12.5732 1.51083 12.7022 1.72323 12.7902 1.957C12.8783 2.19077 12.9236 2.44131 12.9236 2.69434C12.9236 2.94737 12.8783 3.19791 12.7902 3.43168C12.7022 3.66545 12.5732 3.87785 12.4105 4.05677C12.2479 4.23568 12.0548 4.37761 11.8423 4.47444C11.6298 4.57127 11.402 4.6211 11.172 4.6211C10.7074 4.6211 10.2619 4.4181 9.9334 4.05677C9.60491 3.69543 9.42036 3.20535 9.42036 2.69434Z" stroke="#F4D3C0" stroke-width="0.964185" stroke-miterlimit="10" stroke-linecap="round"/>
</svg>
