<svg width="134" height="91" viewBox="0 0 134 91" fill="none" xmlns="http://www.w3.org/2000/svg">
<path d="M75.4587 31.621C79.408 27.5381 83.4637 24.4398 88.2286 23.6455C94.7442 22.5624 100.334 25.4047 105.072 31.8966C108.728 36.7719 111.292 43.1843 112.421 50.2762C112.735 52.2454 113.267 53.0462 114.637 52.6918C124.069 50.2368 131.569 63.365 133.058 73.2112C133.816 78.2065 134.348 83.2478 133.728 88.4728C133.462 90.6981 132.841 90.9606 131.587 90.9212C128.484 90.8162 125.381 90.9212 122.279 90.9212C82.8387 90.9212 43.4004 90.9475 3.9635 91C1.91128 91 1.26414 89.9826 0.798732 87.2453C-2.80484 66.0367 6.11766 48.4317 20.8599 48.2413C23.2579 48.2413 23.4396 47.3158 23.1338 44.1518C21.1082 23.1466 30.0262 4.84587 44.1746 0.710476C50.9564 -1.22329 57.9802 0.825899 63.7601 6.42448C69.54 12.0231 73.6225 20.7319 75.144 30.7085C75.234 31.0234 75.3392 31.3284 75.4587 31.621Z" fill="#FCCFCF" fill-opacity="0.2"/>
</svg>
