<svg width="264" height="161" viewBox="0 0 264 161" fill="none" xmlns="http://www.w3.org/2000/svg">
<path opacity="0.2" d="M0 4.78662C4.98311 3.6785 9.96185 2.49964 14.9537 1.48583C16.8346 1.07634 18.7268 0.858598 20.6213 0.833571C25.0507 0.833571 29.4496 -0.235253 33.8703 0.047671C42.7466 0.550647 51.6098 1.12436 60.4643 2.65687C76.6676 5.54029 92.7342 10.5307 108.538 17.589C117.663 21.6128 126.666 26.3203 135.595 31.5544C147.957 38.7415 160.104 47.0753 171.989 56.5224C183.034 65.356 193.84 75.0487 204.408 85.6007C213.807 94.953 222.962 105.018 231.874 115.795C241.334 127.281 250.457 139.647 259.204 152.842C260.878 155.357 262.788 157.558 264 161H0V4.78662Z" fill="#FCCFCF"/>
</svg>
