<svg width="117" height="106" viewBox="0 0 117 106" fill="none" xmlns="http://www.w3.org/2000/svg">
<path d="M68.37 50.4563H57.7774V41.1283H64.1426L65.1056 40.2803H57.7774C57.522 40.2803 57.2771 40.3696 57.0965 40.5286C56.9159 40.6877 56.8145 40.9034 56.8145 41.1283V50.4563C56.8145 50.6812 56.9159 50.8969 57.0965 51.0559C57.2771 51.2149 57.522 51.3043 57.7774 51.3043H68.37C68.6254 51.3043 68.8703 51.2149 69.0509 51.0559C69.2315 50.8969 69.333 50.6812 69.333 50.4563V44.0963L68.37 44.9443V50.4563Z" fill="white"/>
<path d="M71.0325 40.2125L69.4099 38.7836C69.3379 38.72 69.2524 38.6696 69.1582 38.6351C69.064 38.6007 68.963 38.583 68.861 38.583C68.7591 38.583 68.6581 38.6007 68.5639 38.6351C68.4697 38.6696 68.3842 38.72 68.3122 38.7836L61.711 44.6306L61.1766 46.67C61.1538 46.7689 61.1562 46.8709 61.1836 46.9689C61.211 47.0668 61.2627 47.1582 61.335 47.2365C61.4073 47.3147 61.4983 47.3779 61.6017 47.4214C61.705 47.465 61.818 47.4878 61.9325 47.4883C61.9917 47.494 62.0515 47.494 62.1107 47.4883L64.4459 47.0347L71.0325 41.1792C71.1047 41.1158 71.162 41.0405 71.2011 40.9575C71.2402 40.8746 71.2603 40.7857 71.2603 40.6959C71.2603 40.606 71.2402 40.5171 71.2011 40.4342C71.162 40.3512 71.1047 40.2759 71.0325 40.2125ZM63.9451 46.2503L62.1829 46.5937L62.5922 45.0546L67.561 40.6492L68.9188 41.8449L63.9451 46.2503ZM69.4629 41.3658L68.1051 40.1701L68.8514 39.5002L70.2188 40.7043L69.4629 41.3658Z" fill="white"/>
<path d="M46.2132 5.76951C52.204 -1.92317 64.796 -1.92317 70.7868 5.76951L71.1717 6.26378C74.5183 10.5611 80.2963 12.7294 86.0167 11.8347L86.6747 11.7318C96.9148 10.1301 105.819 18.1969 104.051 27.4742L103.937 28.0703C102.95 33.2529 105.343 38.4877 110.086 41.5197L110.632 41.8684C119.123 47.2959 119.123 58.7041 110.632 64.1316L110.086 64.4803C105.343 67.5123 102.95 72.7471 103.937 77.9297L104.051 78.5258C105.819 87.8031 96.9148 95.8699 86.6747 94.2682L86.0167 94.1653C80.2963 93.2705 74.5183 95.4389 71.1717 99.7362L70.7868 100.23C64.796 107.923 52.204 107.923 46.2132 100.23L45.8283 99.7362C42.4817 95.4389 36.7037 93.2705 30.9833 94.1653L30.3253 94.2682C20.0852 95.8699 11.1813 87.8031 12.9492 78.5258L13.0628 77.9297C14.0504 72.7471 11.6571 67.5123 6.9138 64.4803L6.36823 64.1316C-2.12274 58.7041 -2.12274 47.2959 6.36823 41.8684L6.9138 41.5197C11.6571 38.4877 14.0504 33.2529 13.0628 28.0703L12.9492 27.4742C11.1813 18.1969 20.0852 10.1301 30.3253 11.7318L30.9833 11.8347C36.7037 12.7294 42.4817 10.5611 45.8283 6.26378L46.2132 5.76951Z" fill="#F4D3C0"/>
<path fill-rule="evenodd" clip-rule="evenodd" d="M73.4222 35.74C73.2355 34.2865 72.5103 32.9327 71.3644 31.8984C70.2185 30.864 68.7192 30.2098 67.1099 30.042L64.0099 32.842C66.791 34.0122 69.0272 36.0295 70.3261 38.54L73.4222 35.74ZM44.3675 50.58L59.3637 37.042C60.973 37.2107 62.4718 37.8657 63.617 38.9007C64.7622 39.9357 65.4865 41.2899 65.6722 42.7435L50.6799 56.285C49.8228 57.0575 48.7201 57.569 47.5256 57.748L41.7906 58.6125L42.7478 53.4325C42.946 52.3536 43.5122 51.3541 44.3675 50.58ZM63.665 25.73L55.915 32.73L40.26 46.87C38.5466 48.4173 37.4113 50.4094 37.0128 52.568L35.61 60.17C35.5091 60.7194 35.5548 61.2826 35.7434 61.8128C35.9319 62.3431 36.2578 62.825 36.6939 63.2186C37.1301 63.6122 37.664 63.9062 38.2512 64.076C38.8384 64.2458 39.462 64.2866 40.0701 64.195L48.4789 62.935C50.8706 62.5747 53.0777 61.548 54.7913 59.9985L70.4463 45.8585L78.1963 38.8585C78.8937 38.2285 79.2812 37.378 79.2812 36.489C79.2818 34.9476 78.9461 33.4212 78.2933 31.9969C77.6406 30.5727 76.6836 29.2786 75.4771 28.1885C74.2705 27.0984 72.838 26.2336 71.2614 25.6436C69.6848 25.0537 67.9949 24.75 66.2884 24.75C65.3041 24.75 64.3586 25.1 63.6611 25.73M36.6562 68.5C35.8855 68.5 35.1462 68.7766 34.6012 69.2688C34.0562 69.7611 33.75 70.4288 33.75 71.125C33.75 71.8212 34.0562 72.4889 34.6012 72.9812C35.1462 73.4734 35.8855 73.75 36.6562 73.75H77.3438C78.1145 73.75 78.8537 73.4734 79.3988 72.9812C79.9438 72.4889 80.25 71.8212 80.25 71.125C80.25 70.4288 79.9438 69.7611 79.3988 69.2688C78.8537 68.7766 78.1145 68.5 77.3438 68.5H36.6562Z" fill="#4D5053"/>
</svg>
