<svg width="194" height="286" viewBox="0 0 194 286" fill="none" xmlns="http://www.w3.org/2000/svg">
<rect x="192.009" y="1.79337" width="282.682" height="189.853" rx="12.9128" transform="rotate(90.2241 192.009 1.79337)" fill="#FCCFCF" fill-opacity="0.2" stroke="#F6B1B1" stroke-width="2.09397" stroke-dasharray="4.19 4.19"/>
<g clip-path="url(#clip0_322_318)">
<path d="M96.6688 98.4165C85.297 98.4165 76.0781 107.167 76.0781 117.96C76.0781 128.754 85.297 137.504 96.6688 137.504C108.041 137.504 117.26 128.754 117.26 117.96C117.26 107.167 108.041 98.4165 96.6688 98.4165ZM96.6688 135.099C86.7345 135.099 78.652 127.389 78.652 117.96C78.652 108.531 86.7345 100.859 96.6688 100.859C106.603 100.859 114.686 108.531 114.686 117.96C114.686 127.389 106.603 135.099 96.6688 135.099ZM105.677 116.739H97.9558V109.41C97.9558 108.736 97.3792 108.188 96.6688 108.188C95.9585 108.188 95.3819 108.736 95.3819 109.41V116.739H87.6604C86.95 116.739 86.3735 117.286 86.3735 117.96C86.3735 118.634 86.95 119.182 87.6604 119.182H95.3819V126.511C95.3819 127.185 95.9585 127.732 96.6688 127.732C97.3792 127.732 97.9558 127.185 97.9558 126.511V119.182H105.677C106.388 119.182 106.964 118.634 106.964 117.96C106.964 117.286 106.388 116.739 105.677 116.739Z" fill="#CCCCCC"/>
</g>
<path d="M78.5744 164.169H79.2864V165.865C79.2864 167.959 78.1556 170 76.6584 170.796L76.1245 170.105C77.496 169.414 78.5744 167.592 78.5744 165.865V164.169ZM78.7315 164.169H79.433V165.865C79.433 167.529 80.4904 169.257 81.8306 169.927L81.2966 170.618C79.8308 169.833 78.7315 167.896 78.7315 165.865V164.169ZM82.6577 163.352H83.5371V172.817H82.6577V163.352ZM83.3277 167.184H85.0867V167.917H83.3277V167.184ZM88.5723 168.116H89.4413V170.22H88.5723V168.116ZM92.7707 163.352H93.6397V170.555H92.7707V163.352ZM87.1798 171.895H93.8701V172.607H87.1798V171.895ZM87.1798 169.854H88.0488V172.094H87.1798V169.854ZM85.9549 168.44L85.8397 167.728C87.5882 167.728 89.9334 167.707 91.9436 167.446L92.0064 168.084C89.9648 168.409 87.6719 168.44 85.9549 168.44ZM90.8443 168.943H92.9906V169.581H90.8443V168.943ZM88.9178 163.739C90.2999 163.739 91.2421 164.388 91.2421 165.383C91.2421 166.388 90.2999 167.037 88.9178 167.037C87.5253 167.037 86.5831 166.388 86.5831 165.383C86.5831 164.388 87.5253 163.739 88.9178 163.739ZM88.9178 164.388C88.0279 164.388 87.4102 164.776 87.4102 165.383C87.4102 165.99 88.0279 166.378 88.9178 166.378C89.7973 166.378 90.415 165.99 90.415 165.383C90.415 164.776 89.7973 164.388 88.9178 164.388ZM95.513 167.854H104.067V168.555H95.513V167.854ZM99.7847 169.372C101.805 169.372 103.03 170 103.03 171.089C103.03 172.178 101.805 172.796 99.7847 172.796C97.764 172.796 96.5391 172.178 96.5391 171.089C96.5391 170 97.764 169.372 99.7847 169.372ZM99.7847 170.063C98.3085 170.063 97.4185 170.43 97.4185 171.089C97.4185 171.738 98.3085 172.115 99.7847 172.115C101.271 172.115 102.151 171.738 102.151 171.089C102.151 170.43 101.271 170.063 99.7847 170.063ZM99.2298 164.21H100.005V164.493C100.005 166.011 98.2666 167.048 96.3087 167.278L95.9946 166.598C97.6908 166.409 99.2298 165.561 99.2298 164.493V164.21ZM99.5963 164.21H100.361V164.493C100.361 165.561 101.9 166.409 103.596 166.598L103.282 167.278C101.324 167.048 99.5963 166.011 99.5963 164.493V164.21ZM96.2983 163.834H103.303V164.535H96.2983V163.834ZM109.427 163.509C111.51 163.509 112.756 164.095 112.756 165.153C112.756 166.21 111.51 166.796 109.427 166.796C107.333 166.796 106.097 166.21 106.097 165.153C106.097 164.095 107.333 163.509 109.427 163.509ZM109.427 164.169C107.877 164.169 106.987 164.525 106.987 165.153C106.987 165.781 107.877 166.137 109.427 166.137C110.966 166.137 111.856 165.781 111.856 165.153C111.856 164.525 110.966 164.169 109.427 164.169ZM105.144 167.425H113.698V168.126H105.144V167.425ZM106.181 168.932H112.609V171.068H107.06V172.22H106.202V170.44H111.751V169.602H106.181V168.932ZM106.202 172.031H112.892V172.712H106.202V172.031ZM63.6998 180.854H72.2537V181.576H63.6998V180.854ZM64.7782 179.252H71.2591V179.954H64.7782V179.252ZM64.7782 176.729H71.1858V177.441H65.6368V179.587H64.7782V176.729ZM67.9611 182.393C69.9817 182.393 71.2067 183.011 71.2067 184.1C71.2067 185.188 69.9817 185.796 67.9611 185.796C65.9404 185.796 64.7154 185.188 64.7154 184.1C64.7154 183.011 65.9404 182.393 67.9611 182.393ZM67.9611 183.063C66.4848 183.063 65.5949 183.44 65.5949 184.1C65.5949 184.749 66.4848 185.115 67.9611 185.115C69.4478 185.115 70.3273 184.749 70.3273 184.1C70.3273 183.44 69.4478 183.063 67.9611 183.063ZM73.3208 181.555H81.9061V182.267H73.3208V181.555ZM74.4097 176.593H80.7963V178.886H75.2891V180.163H74.4306V178.247H79.9482V177.273H74.4097V176.593ZM74.4306 179.88H81.0057V180.561H74.4306V179.88ZM77.1737 180.236H78.0427V181.911H77.1737V180.236ZM74.2736 182.99H80.8591V185.733H79.9901V183.702H74.2736V182.99ZM82.9418 177.964H87.6323V178.676H82.9418V177.964ZM85.287 179.304C86.4701 179.304 87.3287 180.194 87.3287 181.472C87.3287 182.739 86.4701 183.628 85.287 183.628C84.1144 183.628 83.2559 182.739 83.2559 181.472C83.2559 180.194 84.1144 179.304 85.287 179.304ZM85.287 180.048C84.5646 180.048 84.0411 180.634 84.0411 181.472C84.0411 182.309 84.5646 182.896 85.287 182.896C86.0199 182.896 86.5539 182.309 86.5539 181.472C86.5539 180.634 86.0199 180.048 85.287 180.048ZM90.1346 176.352H90.9722V185.817H90.1346V176.352ZM88.6269 180.33H90.4173V181.053H88.6269V180.33ZM88.1139 176.561H88.9306V185.356H88.1139V176.561ZM84.8682 176.624H85.7268V178.404H84.8682V176.624ZM95.5388 183.89H104.114V184.613H95.5388V183.89ZM99.3708 181.629H100.24V184.1H99.3708V181.629ZM96.5439 177.022H97.4025V178.708H102.229V177.022H103.088V181.859H96.5439V177.022ZM97.4025 179.409V181.147H102.229V179.409H97.4025ZM108.898 179.734H110.709V180.456H108.898V179.734ZM107.128 177.242H107.809V179.043C107.809 181.021 106.982 182.937 105.6 183.785L105.055 183.126C106.353 182.362 107.128 180.665 107.128 179.043V177.242ZM107.296 177.242H107.966V179.011C107.966 180.529 108.678 182.142 109.924 182.896L109.421 183.576C108.06 182.739 107.296 180.854 107.296 179.011V177.242ZM112.374 176.352H113.211V185.817H112.374V176.352ZM110.458 176.551H111.274V185.346H110.458V176.551ZM116.896 181.22H117.754V184.058H116.896V181.22ZM120.393 181.22H121.262V184.058H120.393V181.22ZM114.802 183.89H123.377V184.613H114.802V183.89ZM119.073 176.949C121.073 176.949 122.508 177.901 122.508 179.388C122.508 180.864 121.073 181.817 119.073 181.817C117.063 181.817 115.629 180.864 115.629 179.388C115.629 177.901 117.063 176.949 119.073 176.949ZM119.073 177.64C117.555 177.64 116.466 178.331 116.466 179.388C116.466 180.435 117.555 181.126 119.073 181.126C120.592 181.126 121.67 180.435 121.67 179.388C121.67 178.331 120.592 177.64 119.073 177.64ZM125.873 177.386L125.798 182.858H124.936L124.861 177.386H125.873ZM125.367 185.059C125.184 185.059 125.026 184.994 124.895 184.862C124.764 184.731 124.698 184.574 124.698 184.39C124.698 184.207 124.764 184.049 124.895 183.918C125.026 183.787 125.184 183.721 125.367 183.721C125.551 183.721 125.708 183.787 125.839 183.918C125.971 184.049 126.036 184.207 126.036 184.39C126.036 184.512 126.005 184.623 125.943 184.725C125.884 184.826 125.803 184.908 125.702 184.97C125.603 185.03 125.491 185.059 125.367 185.059Z" fill="#B8B8B8"/>
<defs>
<clipPath id="clip0_322_318">
<rect width="41.1814" height="39.0875" fill="white" transform="translate(76.0781 98.4165)"/>
</clipPath>
</defs>
</svg>
